<svg id="Layer_1" data-name="Layer 1" xmlns="http://www.w3.org/2000/svg" viewBox="0 0 160 25.14"><defs><style>.cls-1{fill:#fff;fill-rule:evenodd;}</style></defs><title>Ciber-Chile_Hipotecario-Mock</title><path class="cls-1" d="M6.65,0H7.82a26.81,26.81,0,0,1,3.73.79h.5a1.27,1.27,0,0,0,.62-.25.75.75,0,0,1,.25.13L8,4.07s-1.49.72-1.49,1.4V14L1.68,17.31c.07-.45.68-.87.68-1.52V7.35C2.36,6.7,7,4.32,7,3.64S4.29,2.43,4.29,2.43c-.87,0-1.23,0-2.12,0A18.23,18.23,0,0,0,0,3C1.06,2.29,3.9,0,6.65,0Zm9.93.18c.75,0,1.2.78,2.48,2.43.32.41,1.8,2.18,1.8,3v.67c0,1.73-4.65,3.47-4.65,4.19,0,.49,2.45.26,3.54,1a3.81,3.81,0,0,1,1.49,2.92v2.07c0,1.23-1.73,1.7-3.85,3.28A43.06,43.06,0,0,1,13,22.54s-3.65-1.95-5.4-1.95H5.28a23.68,23.68,0,0,0-3.6.86s3.66-3.53,7.39-3.53h2.48a17.3,17.3,0,0,1,2.73.86V3.34a.5.5,0,0,0-.5-.42c-.69,0-1.18,1.22-1.18,1.27v9.18c0,.41-1.61,1.63-2.48,2.12C8.83,16.23,8,16.93,7.2,17.31v-.18s.69-.73.69-1.15V6C7.89,5.89,9,4.55,12,2.85,13.73,1.87,15.51.18,16.58.18Zm-1.42,4.2s2,2.12,2,3.4c0,1-.76,1.35-2,2.06Zm0,7.16c.18.05,1.29.7,1.29,1.16v7c-.3.14-.05,0-.24,0-.39,0-1.05-.3-1.05-.66ZM62.6,8.93,67,11.06v9.35l-4.17,2-4.46-1.88V10.75ZM42.23,8.66l2.66,2.6v8l1.24,1.21-2,1.94-2.18-2V13a15.25,15.25,0,0,0-1.61-1.4l-1.49,1.34v6.44l1.12,1.09-2.11,2-1.93-1.81V12.54a12.56,12.56,0,0,1-1.3-1.21L37.2,8.71l2.54,2.37ZM52.47,9l4.85,2a8.25,8.25,0,0,1-2.24,1.45s-4-1.51-4-1.52v7.9l3.33,1.62a16.46,16.46,0,0,1,2.38-.65,1,1,0,0,0,.25,0V20l-3.78,2.43h-.5l-4.79-2.13V11.11ZM28,8.77c3,1.48,4.35,1.66,4.35,2.31v7.78l1.92,1.88-1.8,1.71c-1.32-1.06-1.8-1.52-1.8-1.52l-3.31,1.62-4.51-2V15.4l4.41-2.13,2.42,1V12.12L25.81,10.8,23.87,11l-.09-.31Zm33.26,2,2.89,1.34v8.32l-2.92-1.27ZM25.58,15l4.1,2v3.77l-4.1-1.87ZM82.16,3.29a10.91,10.91,0,0,1,2.36,1c.74.35,2,.63,2,1.27V20.6l-4.09,1.88-4.54-2.12V10.82l4.35-1.89c.15,0,1.55.55,1.55.55v-3L80.21,4.93c-.59,0-1.28.59-2,.71l.15-.59A26.43,26.43,0,0,1,82.16,3.29ZM93.65,8.88l4,4.37L91.78,17.5v1.16a24,24,0,0,0,3.48,1.79s1.72-1.15,2.49-.7c0,.05-4.17,2.67-4.17,2.67l-4.4-1.88v-9.6ZM80.8,10.76l3,1.33v8.33h-.06L80.8,19.14Zm11,.18,3,3-3,2.12Zm56,8.46,1.11,1-2.24,2.07-2.1-2.07v-14l3.23-3.1ZM130.66,3v8.81l3.23-3.1,2.42,2.37V22.22l-3,2.92h-.06V12.56L132,11.47l-1.37,1.16v6.62l1.19,1.09v.07l-2.18,2.12-2.11-2.07V6l3.1-3Zm9.25,0H140L142.09,5v.06l-2.18,2.13-2.17-2.13ZM155.2,9c.11,0,4,4.2,4.09,4.38l-5.89,4.07V19.1l3.34,1.48a6.28,6.28,0,0,0,2.37-.76L160,20c-.07.11-4.1,2.52-4.8,2.52a23.77,23.77,0,0,1-4.41-1.95V11.32C150.79,10.91,155.18,9,155.2,9ZM140,8.68H140L142,10.56v8.63l1.19,1.1-2.24,2.12-2.11-2.06V11.72l-1-.91Zm13.47,2.39,2.83,2.85-2.81,1.77Zm-34.8-9.66h.24c-.2.49-3.54,2.07-4.84,3.53-2,2.23-3.33,3.48-3.1,7a8.8,8.8,0,0,0,3.66,6.1,10.44,10.44,0,0,0,4.16,1.4c2,.09,1.77-.22,1.78-.24l.1,0V4.5c0-.18-.46-1.14-.89-1.14-.12,0-.3.22-.3.36V13.87c0,.38-.36.92-2.12,2.06s-2.35,1.56-2.54,1.52a2.62,2.62,0,0,1,.43-.61V6.27c0-1,1.56-1.66,2.92-2.67a13.14,13.14,0,0,1,3.48-2.07h.55c1.5,0,2.43,1.76,2.61,1.94a2.19,2.19,0,0,1,.56.31h.87c.25,0,.87-.36,1.24-.31a43.09,43.09,0,0,1-4.28,2.86h-.5c-.22,0-.58-.34-1-.55V19a.9.9,0,0,0,.24,0,10.26,10.26,0,0,0,3-1.76h.19v.43l-.94,1.7A9,9,0,0,1,117,22.66c-5.42,0-9.27-3.81-9.68-9.77s3.86-10.8,8.88-11.12c.73,0,1.63,0,1.74,0S118.59,1.45,118.65,1.41Z"/></svg>