<svg id="Layer_1" data-name="Layer 1" xmlns="http://www.w3.org/2000/svg" viewBox="0 0 853 61.08"><defs><style>.cls-1{font-size:9px;fill:#fff;font-family:MyriadPro-Regular, Myriad Pro;}.cls-2{letter-spacing:-0.01em;}.cls-3{letter-spacing:0.06em;}.cls-4{letter-spacing:0.06em;}.cls-5{letter-spacing:-0.01em;}.cls-6{letter-spacing:0em;}.cls-7{letter-spacing:0em;}.cls-8{letter-spacing:0em;}.cls-9{letter-spacing:-0.01em;}.cls-10{letter-spacing:-0.01em;}.cls-11{letter-spacing:-0.01em;}.cls-12{letter-spacing:-0.01em;}.cls-13{letter-spacing:-0.02em;}.cls-14{letter-spacing:0em;}.cls-15{letter-spacing:-0.01em;}.cls-16{letter-spacing:-0.01em;}.cls-17{letter-spacing:0.01em;}.cls-18{letter-spacing:0.01em;}.cls-19{letter-spacing:0.01em;}.cls-20{letter-spacing:0em;}.cls-21{letter-spacing:0em;}.cls-22{letter-spacing:0.01em;}.cls-23{letter-spacing:-0.02em;}.cls-24{letter-spacing:0em;}.cls-25{letter-spacing:0em;}.cls-26{letter-spacing:-0.01em;}.cls-27{letter-spacing:0em;}.cls-28{letter-spacing:-0.01em;}.cls-29{letter-spacing:0.03em;}.cls-30{letter-spacing:-0.01em;}.cls-31{letter-spacing:0.02em;}.cls-32{letter-spacing:-0.01em;}.cls-33{letter-spacing:-0.01em;}.cls-34{letter-spacing:-0.01em;}.cls-35{letter-spacing:0.02em;}.cls-36{letter-spacing:0.01em;}.cls-37{letter-spacing:-0.01em;}.cls-38{letter-spacing:-0.01em;}.cls-39{letter-spacing:-0.04em;}.cls-40{letter-spacing:-0.04em;}.cls-41{letter-spacing:-0.01em;}.cls-42{letter-spacing:-0.01em;}.cls-43{letter-spacing:-0.04em;}.cls-44{letter-spacing:-0.01em;}.cls-45{letter-spacing:-0.01em;}.cls-46{letter-spacing:0.01em;}.cls-47{letter-spacing:0em;}.cls-48{letter-spacing:0em;}.cls-49{letter-spacing:-0.04em;}.cls-50{letter-spacing:-0.04em;}.cls-51{letter-spacing:-0.07em;}.cls-52{letter-spacing:0.03em;}</style></defs><title>Ciber-Chile_Hipotecario-Mock</title><text class="cls-1" transform="translate(0 7.53)">Ban<tspan class="cls-2" x="14.21" y="0">c</tspan><tspan x="18.19" y="0">o</tspan><tspan class="cls-3" x="23.13" y="0"> </tspan><tspan x="25.56" y="0">de</tspan><tspan class="cls-4" x="35.15" y="0"> </tspan><tspan x="37.58" y="0">Chile</tspan><tspan class="cls-3" x="56.54" y="0"> </tspan><tspan x="58.97" y="0">no</tspan><tspan class="cls-4" x="68.9" y="0"> </tspan><tspan x="71.34" y="0">dispone</tspan><tspan class="cls-3" x="101.65" y="0"> </tspan><tspan x="104.08" y="0">de</tspan><tspan class="cls-4" x="113.67" y="0"> </tspan><tspan x="116.1" y="0">mediación,</tspan><tspan class="cls-3" x="157.57" y="0"> </tspan><tspan class="cls-5" x="160.01" y="0">c</tspan><tspan x="163.98" y="0">onciliación</tspan><tspan class="cls-3" x="204.7" y="0"> </tspan><tspan x="207.13" y="0">y/o</tspan><tspan class="cls-4" x="219.4" y="0"> </tspan><tspan x="221.83" y="0">a</tspan><tspan class="cls-6" x="226.17" y="0">r</tspan><tspan x="229.15" y="0">bit</tspan><tspan class="cls-7" x="239.36" y="0">r</tspan><tspan x="242.25" y="0">aje</tspan><tspan class="cls-3" x="253.29" y="0"> </tspan><tspan x="255.72" y="0">pa</tspan><tspan class="cls-7" x="265.18" y="0">r</tspan><tspan x="268.08" y="0">a</tspan><tspan class="cls-4" x="272.42" y="0"> </tspan><tspan x="274.85" y="0">la</tspan><tspan class="cls-3" x="281.31" y="0"> </tspan><tspan x="283.75" y="0">solución</tspan><tspan class="cls-4" x="315.41" y="0"> </tspan><tspan x="317.84" y="0">de</tspan><tspan class="cls-3" x="327.43" y="0"> </tspan><tspan class="cls-2" x="329.86" y="0">c</tspan><tspan x="333.84" y="0">o</tspan><tspan class="cls-8" x="338.78" y="0">n</tspan><tspan x="343.74" y="0">t</tspan><tspan class="cls-9" x="346.72" y="0">r</tspan><tspan class="cls-10" x="349.57" y="0">o</tspan><tspan class="cls-9" x="354.45" y="0">v</tspan><tspan x="358.69" y="0">ersia</tspan><tspan class="cls-11" x="376.15" y="0">s</tspan><tspan x="379.61" y="0">,</tspan><tspan class="cls-4" x="381.47" y="0"> </tspan><tspan x="383.91" y="0">quejas</tspan><tspan class="cls-3" x="408.53" y="0"> </tspan><tspan x="410.96" y="0">o</tspan><tspan class="cls-3" x="415.9" y="0"> </tspan><tspan class="cls-12" x="418.34" y="0">r</tspan><tspan x="421.19" y="0">eclamaciones</tspan><tspan class="cls-4" x="472.18" y="0"> </tspan><tspan x="474.62" y="0">de</tspan><tspan class="cls-3" x="484.2" y="0"> </tspan><tspan class="cls-2" x="486.64" y="0">c</tspan><tspan x="490.61" y="0">onsum</tspan><tspan class="cls-13" x="516.58" y="0">o</tspan><tspan x="521.3" y="0">.</tspan><tspan class="cls-4" x="523.17" y="0"> </tspan><tspan x="525.6" y="0">El</tspan><tspan class="cls-3" x="532.15" y="0"> </tspan><tspan x="534.58" y="0">clie</tspan><tspan class="cls-14" x="547.36" y="0">n</tspan><tspan class="cls-5" x="552.31" y="0">t</tspan><tspan x="555.24" y="0">e</tspan><tspan class="cls-4" x="559.75" y="0"> </tspan><tspan x="562.18" y="0">pod</tspan><tspan class="cls-7" x="577.32" y="0">r</tspan><tspan x="580.22" y="0">á,</tspan><tspan class="cls-3" x="586.42" y="0"> </tspan><tspan x="588.85" y="0">en</tspan><tspan class="cls-3" x="598.36" y="0"> </tspan><tspan x="600.79" y="0">caso</tspan><tspan class="cls-4" x="617.67" y="0"> </tspan><tspan x="620.1" y="0">de</tspan><tspan class="cls-3" x="629.68" y="0"> </tspan><tspan x="632.12" y="0">su</tspan><tspan class="cls-15" x="640.64" y="0">r</tspan><tspan class="cls-2" x="643.51" y="0">g</tspan><tspan x="648.49" y="0">ir</tspan><tspan class="cls-4" x="653.54" y="0"> </tspan><tspan x="655.97" y="0">alguna</tspan><tspan class="cls-3" x="681.75" y="0"> </tspan><tspan class="cls-5" x="684.19" y="0">c</tspan><tspan x="688.17" y="0">o</tspan><tspan class="cls-14" x="693.11" y="0">n</tspan><tspan x="698.07" y="0">t</tspan><tspan class="cls-12" x="701.04" y="0">r</tspan><tspan class="cls-16" x="703.9" y="0">o</tspan><tspan class="cls-12" x="708.78" y="0">v</tspan><tspan x="713.02" y="0">ersia,</tspan><tspan class="cls-4" x="732.34" y="0"> </tspan><tspan x="734.77" y="0">acudir</tspan><tspan class="cls-3" x="758.22" y="0"> </tspan><tspan x="760.66" y="0">siemp</tspan><tspan class="cls-9" x="783.46" y="0">r</tspan><tspan x="786.32" y="0">e</tspan><tspan class="cls-4" x="790.82" y="0"> </tspan><tspan x="793.26" y="0">a</tspan><tspan class="cls-8" x="797.6" y="0">n</tspan><tspan class="cls-2" x="802.56" y="0">t</tspan><tspan x="805.48" y="0">e</tspan><tspan class="cls-3" x="809.99" y="0"> </tspan><tspan x="812.42" y="0">el</tspan><tspan class="cls-3" x="819.06" y="0"> </tspan><tspan x="821.49" y="0">t</tspan><tspan class="cls-6" x="824.47" y="0">r</tspan><tspan x="827.45" y="0">ibunal </tspan><tspan class="cls-2" x="0" y="10.8">c</tspan><tspan x="3.98" y="10.8">ompe</tspan><tspan class="cls-5" x="26.05" y="10.8">t</tspan><tspan x="28.98" y="10.8">e</tspan><tspan class="cls-14" x="33.49" y="10.8">n</tspan><tspan class="cls-5" x="38.45" y="10.8">t</tspan><tspan x="41.37" y="10.8">e</tspan><tspan class="cls-17" x="45.88" y="10.8"> </tspan><tspan x="47.9" y="10.8">de</tspan><tspan class="cls-18" x="57.49" y="10.8"> </tspan><tspan x="59.51" y="10.8">acue</tspan><tspan class="cls-12" x="77.35" y="10.8">r</tspan><tspan x="80.2" y="10.8">do</tspan><tspan class="cls-18" x="90.22" y="10.8"> </tspan><tspan x="92.24" y="10.8">a</tspan><tspan class="cls-19" x="96.58" y="10.8"> </tspan><tspan x="98.6" y="10.8">las</tspan><tspan class="cls-17" x="108.63" y="10.8"> </tspan><tspan x="110.65" y="10.8">disposiciones</tspan><tspan class="cls-19" x="161.27" y="10.8"> </tspan><tspan x="163.29" y="10.8">de</tspan><tspan class="cls-18" x="172.88" y="10.8"> </tspan><tspan x="174.9" y="10.8">la</tspan><tspan class="cls-17" x="181.36" y="10.8"> </tspan><tspan x="183.39" y="10.8">ley</tspan><tspan class="cls-19" x="194.26" y="10.8"> </tspan><tspan class="cls-20" x="196.28" y="10.8">19.496.</tspan><tspan class="cls-19" x="223.09" y="10.8"> </tspan><tspan class="cls-21" x="225.11" y="10.8">Q</tspan><tspan x="231.34" y="10.8">ueda</tspan><tspan class="cls-22" x="250.22" y="10.8"> </tspan><tspan x="252.24" y="10.8">p</tspan><tspan class="cls-9" x="257.36" y="10.8">r</tspan><tspan class="cls-20" x="260.22" y="10.8">ohibid</tspan><tspan class="cls-23" x="284.56" y="10.8">o</tspan><tspan class="cls-20" x="289.29" y="10.8">,</tspan><tspan class="cls-19" x="291.15" y="10.8"> </tspan><tspan class="cls-20" x="293.17" y="10.8">sal</tspan><tspan class="cls-12" x="303.2" y="10.8">v</tspan><tspan class="cls-24" x="307.44" y="10.8">o</tspan><tspan class="cls-18" x="312.38" y="10.8"> </tspan><tspan x="314.4" y="10.8">en</tspan><tspan class="cls-17" x="323.9" y="10.8"> </tspan><tspan x="325.93" y="10.8">los</tspan><tspan class="cls-18" x="336.56" y="10.8"> </tspan><tspan class="cls-24" x="338.58" y="10.8">casos</tspan><tspan class="cls-19" x="359.02" y="10.8"> </tspan><tspan x="361.04" y="10.8">en</tspan><tspan class="cls-22" x="370.54" y="10.8"> </tspan><tspan class="cls-24" x="372.56" y="10.8">que</tspan><tspan class="cls-18" x="387.1" y="10.8"> </tspan><tspan class="cls-25" x="389.12" y="10.8">e</tspan><tspan x="393.6" y="10.8">xp</tspan><tspan class="cls-9" x="402.89" y="10.8">r</tspan><tspan x="405.74" y="10.8">esame</tspan><tspan class="cls-14" x="430.17" y="10.8">n</tspan><tspan class="cls-26" x="435.13" y="10.8">t</tspan><tspan x="438.05" y="10.8">e</tspan><tspan class="cls-22" x="442.56" y="10.8"> </tspan><tspan x="444.58" y="10.8">Ban</tspan><tspan class="cls-2" x="458.8" y="10.8">c</tspan><tspan class="cls-20" x="462.77" y="10.8">o</tspan><tspan class="cls-19" x="467.71" y="10.8"> </tspan><tspan x="469.74" y="10.8">de</tspan><tspan class="cls-18" x="479.32" y="10.8"> </tspan><tspan x="481.34" y="10.8">Chile</tspan><tspan class="cls-22" x="500.3" y="10.8"> </tspan><tspan x="502.32" y="10.8">lo</tspan><tspan class="cls-18" x="509.38" y="10.8"> </tspan><tspan x="511.41" y="10.8">au</tspan><tspan class="cls-26" x="520.7" y="10.8">t</tspan><tspan class="cls-20" x="523.63" y="10.8">o</tspan><tspan class="cls-27" x="528.57" y="10.8">r</tspan><tspan class="cls-20" x="531.55" y="10.8">i</tspan><tspan class="cls-2" x="533.65" y="10.8">c</tspan><tspan class="cls-28" x="537.63" y="10.8">e</tspan><tspan class="cls-20" x="542.03" y="10.8">,</tspan><tspan class="cls-19" x="543.9" y="10.8"> </tspan><tspan x="545.92" y="10.8">estable</tspan><tspan class="cls-2" x="573.06" y="10.8">c</tspan><tspan x="577.04" y="10.8">er</tspan><tspan class="cls-17" x="584.49" y="10.8"> </tspan><tspan x="586.51" y="10.8">enla</tspan><tspan class="cls-5" x="602.48" y="10.8">c</tspan><tspan x="606.46" y="10.8">e</tspan><tspan class="cls-11" x="610.97" y="10.8">s</tspan><tspan class="cls-24" x="614.43" y="10.8">,</tspan><tspan class="cls-18" x="616.29" y="10.8"> </tspan><tspan x="618.32" y="10.8">hipe</tspan><tspan class="cls-29" x="635.05" y="10.8">r</tspan><tspan x="638.21" y="10.8">vínculos</tspan><tspan class="cls-18" x="669.26" y="10.8"> </tspan><tspan class="cls-24" x="671.29" y="10.8">o</tspan><tspan class="cls-22" x="676.23" y="10.8"> </tspan><tspan x="678.25" y="10.8">link</tspan><tspan class="cls-30" x="691.7" y="10.8">s</tspan><tspan class="cls-24" x="695.16" y="10.8">,</tspan><tspan class="cls-18" x="697.02" y="10.8"> </tspan><tspan x="699.05" y="10.8">desde</tspan><tspan class="cls-22" x="721.78" y="10.8"> </tspan><tspan x="723.8" y="10.8">po</tspan><tspan class="cls-31" x="733.86" y="10.8">r</tspan><tspan class="cls-24" x="737.02" y="10.8">tales</tspan><tspan class="cls-19" x="754.54" y="10.8"> </tspan><tspan class="cls-20" x="756.56" y="10.8">o</tspan><tspan class="cls-19" x="761.5" y="10.8"> </tspan><tspan class="cls-20" x="763.52" y="10.8">sitios</tspan><tspan class="cls-22" x="782.78" y="10.8"> </tspan><tspan class="cls-12" x="784.8" y="10.8">w</tspan><tspan x="791.34" y="10.8">eb</tspan><tspan class="cls-19" x="800.97" y="10.8"> </tspan><tspan x="802.99" y="10.8">de</tspan><tspan class="cls-18" x="812.57" y="10.8"> </tspan><tspan class="cls-26" x="814.6" y="10.8">t</tspan><tspan x="817.52" y="10.8">e</tspan><tspan class="cls-32" x="822.03" y="10.8">r</tspan><tspan class="cls-26" x="824.88" y="10.8">c</tspan><tspan x="828.86" y="10.8">e</tspan><tspan class="cls-32" x="833.37" y="10.8">r</tspan><tspan class="cls-24" x="836.22" y="10.8">os</tspan><tspan class="cls-17" x="844.73" y="10.8"> </tspan><tspan x="846.75" y="10.8">a </tspan><tspan x="0" y="21.6">pá</tspan><tspan class="cls-2" x="9.46" y="21.6">g</tspan><tspan x="14.44" y="21.6">inas</tspan><tspan class="cls-33" x="29.44" y="21.6"> </tspan><tspan class="cls-12" x="31.3" y="21.6">w</tspan><tspan x="37.83" y="21.6">eb</tspan><tspan class="cls-34" x="47.46" y="21.6"> </tspan><tspan x="49.32" y="21.6">del</tspan><tspan class="cls-33" x="61.03" y="21.6"> </tspan><tspan x="62.88" y="21.6">Ban</tspan><tspan class="cls-5" x="77.09" y="21.6">c</tspan><tspan class="cls-13" x="81.07" y="21.6">o</tspan><tspan x="85.8" y="21.6">,</tspan><tspan class="cls-34" x="87.66" y="21.6"> </tspan><tspan x="89.52" y="21.6">disti</tspan><tspan class="cls-14" x="105.35" y="21.6">n</tspan><tspan x="110.31" y="21.6">tas</tspan><tspan class="cls-33" x="121.19" y="21.6"> </tspan><tspan x="123.05" y="21.6">de</tspan><tspan class="cls-34" x="132.63" y="21.6"> </tspan><tspan x="134.49" y="21.6">la</tspan><tspan class="cls-33" x="140.95" y="21.6"> </tspan><tspan x="142.81" y="21.6">pá</tspan><tspan class="cls-2" x="152.27" y="21.6">g</tspan><tspan x="157.24" y="21.6">ina</tspan><tspan class="cls-34" x="168.68" y="21.6"> </tspan><tspan x="170.54" y="21.6">p</tspan><tspan class="cls-6" x="175.66" y="21.6">r</tspan><tspan x="178.64" y="21.6">incipal</tspan><tspan class="cls-33" x="203.46" y="21.6"> </tspan><tspan x="205.32" y="21.6">de</tspan><tspan class="cls-33" x="214.9" y="21.6"> </tspan><tspan x="216.76" y="21.6">su</tspan><tspan class="cls-34" x="225.28" y="21.6"> </tspan><tspan x="227.14" y="21.6">po</tspan><tspan class="cls-35" x="237.2" y="21.6">r</tspan><tspan x="240.36" y="21.6">ta</tspan><tspan class="cls-12" x="247.68" y="21.6">l</tspan><tspan x="249.71" y="21.6">,</tspan><tspan class="cls-33" x="251.57" y="21.6"> </tspan><tspan x="253.43" y="21.6">a</tspan><tspan class="cls-2" x="257.77" y="21.6">cc</tspan><tspan x="265.73" y="21.6">esible</tspan><tspan class="cls-34" x="287.66" y="21.6"> </tspan><tspan x="289.52" y="21.6">en</tspan><tspan class="cls-33" x="299.02" y="21.6"> </tspan><tspan x="300.88" y="21.6">la</tspan><tspan class="cls-34" x="307.34" y="21.6"> </tspan><tspan x="309.2" y="21.6">di</tspan><tspan class="cls-12" x="316.38" y="21.6">r</tspan><tspan x="319.23" y="21.6">e</tspan><tspan class="cls-2" x="323.74" y="21.6">c</tspan><tspan x="327.72" y="21.6">ción</tspan><tspan class="cls-33" x="343.79" y="21.6"> </tspan><tspan x="345.65" y="21.6">URL</tspan><tspan class="cls-34" x="360.56" y="21.6"> </tspan><tspan class="cls-14" x="362.42" y="21.6">h</tspan><tspan x="367.38" y="21.6">ttp://</tspan><tspan class="cls-36" x="386.49" y="21.6">ww</tspan><tspan x="399.96" y="21.6">w3.ban</tspan><tspan class="cls-5" x="427.52" y="21.6">c</tspan><tspan x="431.49" y="21.6">ochil</tspan><tspan class="cls-37" x="449.69" y="21.6">e</tspan><tspan x="454.09" y="21.6">.c</tspan><tspan class="cls-12" x="459.99" y="21.6">l</tspan><tspan x="462.02" y="21.6">,</tspan><tspan class="cls-33" x="463.88" y="21.6"> </tspan><tspan x="465.74" y="21.6">o</tspan><tspan class="cls-34" x="470.68" y="21.6"> </tspan><tspan x="472.54" y="21.6">la</tspan><tspan class="cls-33" x="479" y="21.6"> </tspan><tspan x="480.86" y="21.6">que</tspan><tspan class="cls-33" x="495.39" y="21.6"> </tspan><tspan x="497.25" y="21.6">le</tspan><tspan class="cls-34" x="503.88" y="21.6"> </tspan><tspan x="505.74" y="21.6">sustitu</tspan><tspan class="cls-14" x="530.85" y="21.6">y</tspan><tspan x="535.05" y="21.6">a</tspan><tspan class="cls-33" x="539.39" y="21.6"> </tspan><tspan x="541.25" y="21.6">en</tspan><tspan class="cls-34" x="550.75" y="21.6"> </tspan><tspan x="552.61" y="21.6">el</tspan><tspan class="cls-33" x="559.24" y="21.6"> </tspan><tspan x="561.1" y="21.6">futu</tspan><tspan class="cls-12" x="576.62" y="21.6">r</tspan><tspan class="cls-13" x="579.48" y="21.6">o</tspan><tspan x="584.2" y="21.6">,</tspan><tspan class="cls-34" x="586.07" y="21.6"> </tspan><tspan x="587.92" y="21.6">así</tspan><tspan class="cls-33" x="597.93" y="21.6" xml:space="preserve"> c</tspan><tspan x="603.77" y="21.6">omo</tspan><tspan class="cls-34" x="621.15" y="21.6"> </tspan><tspan x="623.01" y="21.6">p</tspan><tspan class="cls-12" x="628.13" y="21.6">r</tspan><tspan x="630.98" y="21.6">ese</tspan><tspan class="cls-14" x="643.57" y="21.6">n</tspan><tspan x="648.52" y="21.6">tar</tspan><tspan class="cls-33" x="658.78" y="21.6"> </tspan><tspan x="660.64" y="21.6">las</tspan><tspan class="cls-33" x="670.67" y="21.6"> </tspan><tspan x="672.52" y="21.6">pá</tspan><tspan class="cls-5" x="681.98" y="21.6">g</tspan><tspan x="686.96" y="21.6">inas</tspan><tspan class="cls-34" x="701.96" y="21.6"> </tspan><tspan class="cls-9" x="703.82" y="21.6">w</tspan><tspan x="710.35" y="21.6">eb</tspan><tspan class="cls-33" x="719.98" y="21.6"> </tspan><tspan x="721.84" y="21.6">de</tspan><tspan class="cls-34" x="731.43" y="21.6"> </tspan><tspan x="733.28" y="21.6">Ban</tspan><tspan class="cls-5" x="747.49" y="21.6">c</tspan><tspan x="751.47" y="21.6">o</tspan><tspan class="cls-33" x="756.41" y="21.6"> </tspan><tspan x="758.27" y="21.6">de</tspan><tspan class="cls-34" x="767.86" y="21.6"> </tspan><tspan x="769.71" y="21.6">Chile</tspan><tspan class="cls-33" x="788.67" y="21.6"> </tspan><tspan x="790.52" y="21.6">o</tspan><tspan class="cls-34" x="795.47" y="21.6"> </tspan><tspan x="797.32" y="21.6">la</tspan><tspan class="cls-33" x="803.78" y="21.6"> </tspan><tspan x="805.64" y="21.6">in</tspan><tspan class="cls-38" x="812.74" y="21.6">f</tspan><tspan x="815.25" y="21.6">o</tspan><tspan class="cls-27" x="820.19" y="21.6">r</tspan><tspan x="823.17" y="21.6">mación </tspan><tspan class="cls-2" x="0" y="32.4">c</tspan><tspan x="3.98" y="32.4">o</tspan><tspan class="cls-8" x="8.92" y="32.4">n</tspan><tspan class="cls-2" x="13.88" y="32.4">t</tspan><tspan x="16.8" y="32.4">enida</tspan><tspan class="cls-39" x="37.83" y="32.4"> </tspan><tspan x="39.4" y="32.4">en</tspan><tspan class="cls-39" x="48.91" y="32.4"> </tspan><tspan x="50.48" y="32.4">ellas</tspan><tspan class="cls-39" x="67.14" y="32.4"> </tspan><tspan x="68.72" y="32.4">bajo</tspan><tspan class="cls-39" x="85.31" y="32.4"> </tspan><tspan x="86.88" y="32.4">f</tspan><tspan class="cls-7" x="89.51" y="32.4">r</tspan><tspan x="92.41" y="32.4">ames</tspan><tspan class="cls-40" x="112.33" y="32.4"> </tspan><tspan x="113.9" y="32.4">o</tspan><tspan class="cls-39" x="118.84" y="32.4"> </tspan><tspan x="120.42" y="32.4">ma</tspan><tspan class="cls-12" x="132.26" y="32.4">r</tspan><tspan class="cls-5" x="135.12" y="32.4">c</tspan><tspan x="139.1" y="32.4">o</tspan><tspan class="cls-41" x="144.04" y="32.4">s</tspan><tspan x="147.5" y="32.4">,</tspan><tspan class="cls-39" x="149.36" y="32.4"> </tspan><tspan x="150.94" y="32.4">si</tspan><tspan class="cls-2" x="156.61" y="32.4">g</tspan><tspan x="161.59" y="32.4">nos</tspan><tspan class="cls-40" x="175.09" y="32.4"> </tspan><tspan x="176.66" y="32.4">disti</tspan><tspan class="cls-14" x="192.5" y="32.4">n</tspan><tspan class="cls-24" x="197.45" y="32.4">ti</tspan><tspan class="cls-12" x="202.54" y="32.4">v</tspan><tspan class="cls-24" x="206.78" y="32.4">o</tspan><tspan class="cls-30" x="211.72" y="32.4">s</tspan><tspan class="cls-24" x="215.19" y="32.4">,</tspan><tspan class="cls-40" x="217.05" y="32.4"> </tspan><tspan x="218.62" y="32.4">ma</tspan><tspan class="cls-42" x="230.47" y="32.4">r</tspan><tspan class="cls-20" x="233.32" y="32.4">cas</tspan><tspan class="cls-40" x="245.25" y="32.4"> </tspan><tspan class="cls-24" x="246.83" y="32.4">o</tspan><tspan class="cls-40" x="251.77" y="32.4"> </tspan><tspan x="253.35" y="32.4">denominaciones</tspan><tspan class="cls-40" x="315.96" y="32.4"> </tspan><tspan class="cls-24" x="317.54" y="32.4">sociales</tspan><tspan class="cls-43" x="346.72" y="32.4"> </tspan><tspan class="cls-20" x="348.29" y="32.4">o</tspan><tspan class="cls-43" x="353.23" y="32.4"> </tspan><tspan class="cls-44" x="354.81" y="32.4">c</tspan><tspan class="cls-24" x="358.79" y="32.4">ome</tspan><tspan class="cls-32" x="375.74" y="32.4">r</tspan><tspan x="378.6" y="32.4">ciales</tspan><tspan class="cls-43" x="399.27" y="32.4"> </tspan><tspan x="400.85" y="32.4">de</tspan><tspan class="cls-40" x="410.43" y="32.4"> </tspan><tspan class="cls-24" x="412.01" y="32.4">ot</tspan><tspan class="cls-45" x="419.93" y="32.4">r</tspan><tspan x="422.83" y="32.4">a</tspan><tspan class="cls-40" x="427.16" y="32.4"> </tspan><tspan x="428.74" y="32.4">persona,</tspan><tspan class="cls-39" x="461.01" y="32.4"> </tspan><tspan x="462.59" y="32.4">emp</tspan><tspan class="cls-32" x="479.73" y="32.4">r</tspan><tspan x="482.58" y="32.4">esa</tspan><tspan class="cls-40" x="494.99" y="32.4"> </tspan><tspan class="cls-24" x="496.57" y="32.4">o</tspan><tspan class="cls-40" x="501.51" y="32.4"> </tspan><tspan x="503.08" y="32.4">e</tspan><tspan class="cls-14" x="507.59" y="32.4">n</tspan><tspan class="cls-24" x="512.55" y="32.4">tida</tspan><tspan class="cls-12" x="527.05" y="32.4">d</tspan><tspan class="cls-24" x="532.04" y="32.4">.</tspan><tspan class="cls-39" x="533.9" y="32.4"> </tspan><tspan class="cls-46" x="535.48" y="32.4">I</tspan><tspan x="537.72" y="32.4">n</tspan><tspan class="cls-38" x="542.71" y="32.4">f</tspan><tspan class="cls-20" x="545.22" y="32.4">ó</tspan><tspan class="cls-47" x="550.16" y="32.4">r</tspan><tspan x="553.14" y="32.4">mese</tspan><tspan class="cls-39" x="573.23" y="32.4"> </tspan><tspan class="cls-20" x="574.81" y="32.4">sob</tspan><tspan class="cls-32" x="588.43" y="32.4">r</tspan><tspan x="591.29" y="32.4">e</tspan><tspan class="cls-43" x="595.8" y="32.4"> </tspan><tspan x="597.37" y="32.4">la</tspan><tspan class="cls-40" x="603.83" y="32.4"> </tspan><tspan class="cls-24" x="605.41" y="32.4">ga</tspan><tspan class="cls-48" x="614.78" y="32.4">r</tspan><tspan x="617.68" y="32.4">a</tspan><tspan class="cls-14" x="622.02" y="32.4">n</tspan><tspan class="cls-24" x="626.97" y="32.4">tía</tspan><tspan class="cls-43" x="636.4" y="32.4"> </tspan><tspan x="637.97" y="32.4">est</tspan><tspan class="cls-14" x="649.02" y="32.4">a</tspan><tspan class="cls-20" x="653.33" y="32.4">tal</tspan><tspan class="cls-39" x="662.77" y="32.4"> </tspan><tspan x="664.34" y="32.4">de</tspan><tspan class="cls-40" x="673.93" y="32.4"> </tspan><tspan x="675.51" y="32.4">los</tspan><tspan class="cls-43" x="686.14" y="32.4"> </tspan><tspan x="687.71" y="32.4">depósi</tspan><tspan class="cls-2" x="713.03" y="32.4">t</tspan><tspan class="cls-20" x="715.95" y="32.4">os</tspan><tspan class="cls-40" x="724.46" y="32.4"> </tspan><tspan x="726.04" y="32.4">en</tspan><tspan class="cls-43" x="735.54" y="32.4"> </tspan><tspan class="cls-20" x="737.12" y="32.4">su</tspan><tspan class="cls-43" x="745.64" y="32.4"> </tspan><tspan x="747.22" y="32.4">ban</tspan><tspan class="cls-5" x="761.67" y="32.4">c</tspan><tspan class="cls-24" x="765.65" y="32.4">o</tspan><tspan class="cls-40" x="770.59" y="32.4"> </tspan><tspan class="cls-24" x="772.17" y="32.4">o</tspan><tspan class="cls-40" x="777.11" y="32.4"> </tspan><tspan x="778.68" y="32.4">en</tspan><tspan class="cls-39" x="788.19" y="32.4"> </tspan><tspan class="cls-36" x="789.76" y="32.4">ww</tspan><tspan class="cls-49" x="803.23" y="32.4">w</tspan><tspan class="cls-20" x="809.5" y="32.4">.cm</tspan><tspan class="cls-38" x="822.9" y="32.4">f</tspan><tspan x="825.41" y="32.4">chil</tspan><tspan class="cls-37" x="838.67" y="32.4">e</tspan><tspan class="cls-20" x="843.07" y="32.4">.cl </tspan><tspan x="0" y="43.2">© 2024 Ban</tspan><tspan class="cls-2" x="42.59" y="43.2">c</tspan><tspan x="46.56" y="43.2">o de Chil</tspan><tspan class="cls-37" x="79.35" y="43.2">e</tspan><tspan x="83.75" y="43.2">.</tspan><tspan class="cls-50" x="85.61" y="43.2"> </tspan><tspan class="cls-51" x="87.15" y="43.2">T</tspan><tspan x="90.99" y="43.2">odos los </tspan><tspan class="cls-6" x="123.95" y="43.2">D</tspan><tspan x="129.98" y="43.2">e</tspan><tspan class="cls-12" x="134.49" y="43.2">r</tspan><tspan x="137.34" y="43.2">echos </tspan><tspan class="cls-27" x="161.29" y="43.2">R</tspan><tspan x="166.17" y="43.2">ese</tspan><tspan class="cls-52" x="178.75" y="43.2">r</tspan><tspan class="cls-14" x="181.92" y="43.2">v</tspan><tspan x="186.21" y="43.2">ado</tspan><tspan class="cls-11" x="200.57" y="43.2">s</tspan><tspan x="204.03" y="43.2">.</tspan></text></svg>